<?xml version="1.0" encoding="utf-8"?>
<!-- Generator: Adobe Illustrator 19.2.1, SVG Export Plug-In . SVG Version: 6.00 Build 0)  -->
<svg version="1.1" id="Hexa2" xmlns="http://www.w3.org/2000/svg" xmlns:xlink="http://www.w3.org/1999/xlink" x="0px" y="0px"
	 width="162.7px" height="173.3px" viewBox="0 0 162.7 173.3" style="enable-background:new 0 0 162.7 173.3;" xml:space="preserve"
	>
<g>
	<g>
		<g style="enable-background:new    ;">
			<g>
				<polygon style="fill:#010102;" points="126,30.1 126,53.2 70.4,45.8 70.4,22.6 				"/>
			</g>
			<g>
				<polygon style="fill:#010102;" points="70.4,22.6 70.4,45.8 26.7,91.2 26.7,68 				"/>
			</g>
			<g>
				<polygon style="fill:#010102;" points="137.8,82.9 137.8,106.1 126,53.2 126,30.1 				"/>
			</g>
			<g>
				<polygon style="fill:#010102;" points="33.7,125.7 33.7,148.9 20.7,90.4 20.7,67.2 				"/>
			</g>
			<g>
				<polygon style="fill:#010102;" points="95.2,133.9 95.2,157.1 33.7,148.9 33.7,125.7 				"/>
			</g>
			<g>
				<polygon style="fill:#010102;" points="143.7,83.7 143.7,106.8 95.2,157.1 95.2,133.9 				"/>
			</g>
			<g>
				<path style="fill:#010102;" d="M130.7,25.2l13,58.5l-48.5,50.2l-61.5-8.2l-13-58.5L69.2,17L130.7,25.2z M94,128.3l43.8-45.4
					L126,30.1l-55.6-7.4L26.7,68l11.8,52.8L94,128.3"/>
			</g>
		</g>
	</g>
</g>
</svg>
